<svg id="Capa_1" data-name="Capa 1" xmlns="http://www.w3.org/2000/svg" viewBox="0 0 145.46 199.69"><defs><style>.cls-1,.cls-5{fill:#1c365b;}.cls-2{fill:#ee721a;}.cls-3{fill:#fff;}.cls-4{fill:#ea5b0c;}.cls-5{font-size:31px;stroke:#1c365b;stroke-miterlimit:10;stroke-width:0.25px;font-family:Qoxiem;letter-spacing:0.01em;}.cls-6{letter-spacing:0.02em;}.cls-7{letter-spacing:-0.01em;}</style></defs><path class="cls-1" d="M104.09,110.91c-10.42-1.27-49.73,8.57-78.4,14.56-24.4,5.1-18.15-3.08-10.41-3.08,0-.31-.07-.63-.1-1-4.19.23-10.28,1.28-10.28,5.37,0,6.24,6.28,19.83,9.27,22s79.52,6.21,85,4.55c12.77-3.9,21-36.46,21-36.46S114.51,112.19,104.09,110.91Z"/><path class="cls-2" d="M68.33,93.85c-.26-2.35-9-5.26-26.86-5.26-16.9,0-23.12,5.11-24,6.71s1.2,3.26,1.2,3.26l.57,25.65,45.51-9.1L65.4,97S68.58,96.08,68.33,93.85ZM36.91,113.77c-4.28,0-4.5-4.21-4.5-9.41S31.58,95,36.91,95c5.05,0,4.5,4.21,4.5,9.41S41.59,113.81,36.91,113.77Zm12.75-1.25c-4.28,0-4.5-4.21-4.5-9.41s-.83-9.41,4.5-9.41c5.05,0,4.5,4.21,4.5,9.41S54.34,112.56,49.66,112.52Z"/><polygon class="cls-1" points="68.78 114.77 68.78 0 70.78 0 73.28 113.95 68.78 114.77"/><path class="cls-1" d="M69.84,5.1S56.23,13.23,54.19,17.85c-1.24,2.8-.18,11.68.67,12.24,1.08.73,4.22-4.91,14.31-4.45C69.17,25.64,64.38,19,69.84,5.1Z"/><path class="cls-1" d="M70.24,31.21s16.77,50-.4,81.19c0,0,39.13-23.42,69.35,2.32C139.19,114.72,156.24,40.7,70.24,31.21Z"/><path class="cls-3" d="M99.75,150.44c1.79-11.8,2.73-23.73,4.31-34.87,3.37,11.92-.71,23.14-4.31,36.1"/><path class="cls-2" d="M24.66,83.93H20.84l1.46-6.74a1,1,0,0,1,1-.83h1.37Z"/><path class="cls-4" d="M64.07,86,62,76.8a9.24,9.24,0,0,0-5.86-7c-4-1.5-9.52-3.32-12.79-3.41h-.26c-3.28.09-8.78,1.91-12.79,3.41a9.28,9.28,0,0,0-5.87,7l-2,9.21H64.07Z"/><path class="cls-2" d="M47.73,66.33a1.87,1.87,0,0,0-1.87-1.81h-5.2a1.88,1.88,0,0,0-1.88,1.81l-.71,18.74H48.44Z"/><rect class="cls-2" x="18.43" y="83.93" width="49.92" height="3.89" rx="1.76"/><path class="cls-2" d="M61.85,83.93h3.82l-1.46-6.74a1,1,0,0,0-1-.83H61.85Z"/><text class="cls-5" transform="translate(3.97 177.56)">M<tspan class="cls-6" x="30.81" y="0">A</tspan><tspan class="cls-7" x="57.94" y="0">R</tspan><tspan x="80.49" y="0">INE</tspan></text><path class="cls-2" d="M5.94,194.49a2.9,2.9,0,0,1-1.59-.42,2.73,2.73,0,0,1-1-1.23A4.86,4.86,0,0,1,3,190.91v-7.19a4.91,4.91,0,0,1,.35-1.94,2.68,2.68,0,0,1,1-1.21,2.9,2.9,0,0,1,1.59-.42,2.9,2.9,0,0,1,1.59.42,2.65,2.65,0,0,1,1,1.22,4.88,4.88,0,0,1,.34,1.94v1.13H6.76v-1.13a1.82,1.82,0,0,0-.09-.61.85.85,0,0,0-.28-.4.74.74,0,0,0-1,.16,1.38,1.38,0,0,0-.22.84v7.19a1.38,1.38,0,0,0,.22.84.69.69,0,0,0,.6.3.69.69,0,0,0,.61-.3,1.51,1.51,0,0,0,.21-.85v-1.13H8.87v1.13a4.88,4.88,0,0,1-.34,1.94,2.73,2.73,0,0,1-1,1.23A2.9,2.9,0,0,1,5.94,194.49Z"/><path class="cls-2" d="M13.17,194.49a3.33,3.33,0,0,1-1.69-.4A2.55,2.55,0,0,1,10.41,193a3.87,3.87,0,0,1-.37-1.78v-7.73a3.91,3.91,0,0,1,.37-1.79,2.6,2.6,0,0,1,1.07-1.13,3.54,3.54,0,0,1,1.69-.38,3.57,3.57,0,0,1,1.69.38,2.66,2.66,0,0,1,1.07,1.13,3.91,3.91,0,0,1,.37,1.79v7.73a3.87,3.87,0,0,1-.37,1.78,2.6,2.6,0,0,1-1.07,1.13A3.35,3.35,0,0,1,13.17,194.49Zm0-2.4a.92.92,0,0,0,.75-.32,1.34,1.34,0,0,0,.27-.9v-7.13a1.33,1.33,0,0,0-.27-.89.92.92,0,0,0-.75-.32.94.94,0,0,0-.75.32,1.39,1.39,0,0,0-.26.89v7.13a1.4,1.4,0,0,0,.26.9A.94.94,0,0,0,13.17,192.09Z"/><path class="cls-2" d="M17.8,194.33v-14h1.64l2.88,9.37-.23.38v-9.75H24v14H22.34l-2.85-8.83.22-.39v9.22Z"/><path class="cls-2" d="M28.57,194.49a3.12,3.12,0,0,1-1.66-.42,2.63,2.63,0,0,1-1.05-1.18A4.39,4.39,0,0,1,25.5,191v-.76l2.07,0V191a1.25,1.25,0,0,0,.26.83.9.9,0,0,0,.73.31.85.85,0,0,0,.7-.3,1.24,1.24,0,0,0,.25-.82v-1.23a1.24,1.24,0,0,0-.22-.73,2.23,2.23,0,0,0-.6-.53c-.24-.16-.51-.32-.8-.48s-.55-.34-.83-.54a3.79,3.79,0,0,1-.78-.72,3.27,3.27,0,0,1-.56-1,4.55,4.55,0,0,1-.22-1.47v-.72a3.69,3.69,0,0,1,.8-2.53,2.86,2.86,0,0,1,2.24-.89,2.78,2.78,0,0,1,2.2.9,3.82,3.82,0,0,1,.79,2.56v.79l-2.08,0v-.81a1.31,1.31,0,0,0-.24-.84.81.81,0,0,0-.67-.31.9.9,0,0,0-.7.28,1.07,1.07,0,0,0-.25.76v.94a1.24,1.24,0,0,0,.26.8,2.25,2.25,0,0,0,.66.55l.86.52c.27.16.53.32.79.5a3.71,3.71,0,0,1,.72.66,3.13,3.13,0,0,1,.52,1,4.39,4.39,0,0,1,.2,1.41V191a3.76,3.76,0,0,1-.8,2.55A2.8,2.8,0,0,1,28.57,194.49Z"/><path class="cls-2" d="M32.42,182.59v-2.3h6.13v2.3Zm2,11.75V181.47h2.09v12.87Z"/><path class="cls-2" d="M39.72,194.34V180.28h2v14.06Zm.93-5.94v-2.3h2.2a.8.8,0,0,0,.64-.25,1,1,0,0,0,.23-.68v-1.56a1.15,1.15,0,0,0-.23-.76.78.78,0,0,0-.64-.27h-2.2v-2.3h2.08a3.67,3.67,0,0,1,1.69.37,2.53,2.53,0,0,1,1.08,1.09,3.81,3.81,0,0,1,.37,1.73v1.64a4,4,0,0,1-.37,1.78A2.6,2.6,0,0,1,44.42,188a3.43,3.43,0,0,1-1.69.39ZM44,194.34,42.35,188l1.91-.44,2,6.82Z"/><path class="cls-2" d="M50.12,194.49a2.67,2.67,0,0,1-2.15-.94,4,4,0,0,1-.77-2.61V180.29h2.09V191a1.3,1.3,0,0,0,.22.79.74.74,0,0,0,.61.29.75.75,0,0,0,.62-.29A1.24,1.24,0,0,0,51,191V180.29h2.1v10.65a4,4,0,0,1-.78,2.61A2.67,2.67,0,0,1,50.12,194.49Z"/><path class="cls-2" d="M57.19,194.49a2.87,2.87,0,0,1-1.58-.42,2.75,2.75,0,0,1-1-1.23,4.86,4.86,0,0,1-.34-1.93v-7.19a4.92,4.92,0,0,1,.34-1.94,2.7,2.7,0,0,1,1-1.21,2.87,2.87,0,0,1,1.58-.42,2.9,2.9,0,0,1,1.59.42,2.59,2.59,0,0,1,1,1.22,4.87,4.87,0,0,1,.35,1.94v1.13H58v-1.13a1.59,1.59,0,0,0-.1-.61.84.84,0,0,0-.27-.4.73.73,0,0,0-.46-.15.7.7,0,0,0-.6.31,1.45,1.45,0,0,0-.21.84v7.19a1.45,1.45,0,0,0,.21.84.77.77,0,0,0,1.22,0,1.51,1.51,0,0,0,.21-.85v-1.13h2.11v1.13a4.87,4.87,0,0,1-.35,1.94,2.67,2.67,0,0,1-1,1.23A2.9,2.9,0,0,1,57.19,194.49Z"/><path class="cls-2" d="M60.79,182.59v-2.3h6.12v2.3Zm2,11.75V181.47H64.9v12.87Z"/><path class="cls-2" d="M70,180.29v14.05H67.91V180.29Z"/><path class="cls-2" d="M74.63,194.49a3.33,3.33,0,0,1-1.69-.4A2.55,2.55,0,0,1,71.87,193a3.87,3.87,0,0,1-.37-1.78v-7.73a3.91,3.91,0,0,1,.37-1.79,2.6,2.6,0,0,1,1.07-1.13,3.95,3.95,0,0,1,3.38,0,2.6,2.6,0,0,1,1.07,1.13,3.91,3.91,0,0,1,.37,1.79v7.73a3.87,3.87,0,0,1-.37,1.78,2.55,2.55,0,0,1-1.07,1.13A3.33,3.33,0,0,1,74.63,194.49Zm0-2.4a.91.91,0,0,0,.75-.32,1.34,1.34,0,0,0,.27-.9v-7.13a1.33,1.33,0,0,0-.27-.89,1,1,0,0,0-1.49,0,1.33,1.33,0,0,0-.27.89v7.13a1.34,1.34,0,0,0,.27.9A.9.9,0,0,0,74.63,192.09Z"/><path class="cls-2" d="M79.26,194.33v-14H80.9l2.88,9.37-.23.38v-9.75h1.91v14H83.8L81,185.5l.22-.39v9.22Z"/><path class="cls-1" d="M94.31,189.17a2.25,2.25,0,0,0-1.43.41,1.44,1.44,0,0,0-.5,1.17,1.61,1.61,0,0,0,.37,1.14,1.28,1.28,0,0,0,1,.4c.7,0,1.24-.46,1.63-1.37A10.52,10.52,0,0,0,96,187h2a13.12,13.12,0,0,1-.54,4,5.62,5.62,0,0,1-1.55,2.55,3.66,3.66,0,0,1-2.45.88,2.76,2.76,0,0,1-2.27-1,4.19,4.19,0,0,1-.81-2.75,3.69,3.69,0,0,1,.86-2.56,3.53,3.53,0,0,1,2.39-1.11Zm1.7,5.17-2.88-5.54c-.49-1-.91-1.84-1.24-2.66a7.06,7.06,0,0,1-.49-2.68,3.63,3.63,0,0,1,.74-2.42,3,3,0,0,1,4.19,0,3.51,3.51,0,0,1,.74,2.38v1.2H95v-1.2a1.42,1.42,0,0,0-.2-.81.62.62,0,0,0-.55-.3.64.64,0,0,0-.56.3,1.5,1.5,0,0,0-.21.86,5.5,5.5,0,0,0,.36,1.94,15,15,0,0,0,1,2.08l3.77,6.86Z"/><path class="cls-2" d="M103.2,194.34V180.28h2v14.06Zm.93-5.94v-2.3h2.21a.81.81,0,0,0,.64-.25,1,1,0,0,0,.23-.68v-1.56a1.15,1.15,0,0,0-.23-.76.8.8,0,0,0-.64-.27h-2.21v-2.3h2.08a3.71,3.71,0,0,1,1.7.37,2.5,2.5,0,0,1,1.07,1.09,3.68,3.68,0,0,1,.37,1.73v1.64a3.87,3.87,0,0,1-.37,1.78,2.57,2.57,0,0,1-1.07,1.12,3.47,3.47,0,0,1-1.7.39Zm3.33,5.94L105.83,188l1.91-.44,2,6.82Z"/><path class="cls-2" d="M111.16,194.34V180.29h2.08v14.05Zm.92-11.71v-2.34h4.51v2.34Zm0,5.89V186.2h4.09v2.32Zm0,5.82V192h4.51v2.34Z"/><path class="cls-2" d="M117.84,194.34V180.29h2.09v14.05Zm1-5.45v-2.3H121a.72.72,0,0,0,.61-.3,1.51,1.51,0,0,0,.21-.85v-1.65a1.6,1.6,0,0,0-.21-.89.71.71,0,0,0-.61-.31h-2.16v-2.3H121a3.05,3.05,0,0,1,1.56.37,2.43,2.43,0,0,1,1,1.07,4,4,0,0,1,.34,1.71v2.37a3.88,3.88,0,0,1-.34,1.67,2.4,2.4,0,0,1-1,1.05,3.14,3.14,0,0,1-1.55.36Z"/><path class="cls-2" d="M124.2,194.34l2.92-14.05h1.46l2.92,14.05h-2.07l-1.58-9.21-1.58,9.21Zm2-2.18v-2.24h3.34v2.24Z"/><path class="cls-2" d="M134.5,180.29v14.05h-2.09V180.29Z"/><path class="cls-2" d="M136,194.34V180.28h2.05v14.06Zm.94-5.94v-2.3h2.2a.8.8,0,0,0,.64-.25,1,1,0,0,0,.23-.68v-1.56a1.15,1.15,0,0,0-.23-.76.78.78,0,0,0-.64-.27h-2.2v-2.3H139a3.67,3.67,0,0,1,1.69.37,2.45,2.45,0,0,1,1.07,1.09,3.68,3.68,0,0,1,.37,1.73v1.64a3.87,3.87,0,0,1-.37,1.78,2.52,2.52,0,0,1-1.07,1.12,3.43,3.43,0,0,1-1.69.39Zm3.32,5.94L138.64,188l1.91-.44,1.95,6.82Z"/></svg>