<svg id="Capa_1" data-name="Capa 1" xmlns="http://www.w3.org/2000/svg" viewBox="0 0 616.44 620.33"><defs><style>.cls-1{fill:#ee721a;}.cls-2,.cls-3{fill:#212a3a;}.cls-3{stroke:#212a3a;stroke-miterlimit:10;stroke-width:2px;}</style></defs><path class="cls-1" d="M222.41,345.06a5.66,5.66,0,0,1-3.11-.83,5.25,5.25,0,0,1-2-2.41,9.5,9.5,0,0,1-.69-3.81V323.84a9.48,9.48,0,0,1,.69-3.82,5.22,5.22,0,0,1,2-2.4,5.66,5.66,0,0,1,3.11-.83,5.72,5.72,0,0,1,3.14.83,5.16,5.16,0,0,1,2,2.41,9.54,9.54,0,0,1,.68,3.83v2.23H224v-2.23a3.59,3.59,0,0,0-.18-1.21,1.71,1.71,0,0,0-.55-.79,1.41,1.41,0,0,0-.9-.29,1.36,1.36,0,0,0-1.17.6,2.81,2.81,0,0,0-.44,1.67V338a2.77,2.77,0,0,0,.44,1.66,1.38,1.38,0,0,0,1.17.59,1.36,1.36,0,0,0,1.21-.6A2.88,2.88,0,0,0,224,338v-2.23h4.16V338a9.58,9.58,0,0,1-.68,3.83,5.21,5.21,0,0,1-2,2.41A5.72,5.72,0,0,1,222.41,345.06Z"/><path class="cls-1" d="M236.67,345.06a6.76,6.76,0,0,1-3.32-.77,5.14,5.14,0,0,1-2.12-2.23,7.76,7.76,0,0,1-.73-3.52V323.3a7.77,7.77,0,0,1,.73-3.53,5.06,5.06,0,0,1,2.12-2.22,7.65,7.65,0,0,1,6.65,0,5,5,0,0,1,2.11,2.22,7.77,7.77,0,0,1,.73,3.53v15.24a7.76,7.76,0,0,1-.73,3.52,5.11,5.11,0,0,1-2.11,2.23A6.8,6.8,0,0,1,236.67,345.06Zm0-4.73a1.84,1.84,0,0,0,1.49-.63,2.71,2.71,0,0,0,.52-1.77V323.88a2.73,2.73,0,0,0-.52-1.76,1.84,1.84,0,0,0-1.49-.63,1.81,1.81,0,0,0-1.47.63,2.73,2.73,0,0,0-.52,1.76v14.05a2.71,2.71,0,0,0,.52,1.77A1.81,1.81,0,0,0,236.67,340.33Z"/><path class="cls-1" d="M245.8,344.75V317.07H249l5.67,18.48-.45.74V317.07H258v27.68h-3.27l-5.6-17.41.43-.76v18.17Z"/><path class="cls-1" d="M267,345.06a6.21,6.21,0,0,1-3.26-.81,5.28,5.28,0,0,1-2.08-2.34,8.55,8.55,0,0,1-.72-3.69v-1.49l4.1,0v1.49a2.47,2.47,0,0,0,.51,1.65,1.79,1.79,0,0,0,1.43.6,1.69,1.69,0,0,0,1.38-.59,2.47,2.47,0,0,0,.49-1.62V335.8a2.29,2.29,0,0,0-.44-1.44,4.57,4.57,0,0,0-1.16-1.05c-.49-.31-1-.62-1.58-.94s-1.09-.67-1.65-1.07a7.57,7.57,0,0,1-1.53-1.42,6.41,6.41,0,0,1-1.11-2A8.84,8.84,0,0,1,261,325v-1.43a7.23,7.23,0,0,1,1.57-5,5.58,5.58,0,0,1,4.42-1.77,5.46,5.46,0,0,1,4.33,1.79,7.41,7.41,0,0,1,1.56,5v1.56l-4.1.06v-1.58a2.61,2.61,0,0,0-.48-1.67,1.57,1.57,0,0,0-1.31-.6,1.79,1.79,0,0,0-1.39.54,2.18,2.18,0,0,0-.49,1.5v1.85a2.45,2.45,0,0,0,.51,1.59,4.73,4.73,0,0,0,1.31,1.08c.54.31,1.1.65,1.7,1s1,.64,1.55,1a7.48,7.48,0,0,1,1.41,1.3,5.73,5.73,0,0,1,1,1.88,8.58,8.58,0,0,1,.39,2.78v2.31a7.4,7.4,0,0,1-1.57,5A5.51,5.51,0,0,1,267,345.06Z"/><path class="cls-1" d="M274.63,321.61v-4.54h12.08v4.54Zm4,23.16V319.4h4.12v25.37Z"/><path class="cls-1" d="M289,344.77V317.06h4v27.71Zm1.84-11.71v-4.54h4.34a1.63,1.63,0,0,0,1.26-.48,1.91,1.91,0,0,0,.45-1.35v-3.08a2.25,2.25,0,0,0-.45-1.49,1.56,1.56,0,0,0-1.26-.53h-4.34v-4.53h4.09a7.08,7.08,0,0,1,3.35.73,5,5,0,0,1,2.11,2.14,7.31,7.31,0,0,1,.73,3.41v3.24a7.71,7.71,0,0,1-.73,3.51,5,5,0,0,1-2.11,2.2,6.85,6.85,0,0,1-3.35.77Zm6.55,11.71-3.2-12.57,3.76-.88,3.85,13.45Z"/><path class="cls-1" d="M309.52,345.06a5.2,5.2,0,0,1-4.23-1.84,7.83,7.83,0,0,1-1.53-5.15v-21h4.13V338.2a2.51,2.51,0,0,0,.43,1.57,1.42,1.42,0,0,0,1.2.56,1.46,1.46,0,0,0,1.22-.56,2.51,2.51,0,0,0,.43-1.57V317.07h4.13v21a7.83,7.83,0,0,1-1.53,5.15A5.25,5.25,0,0,1,309.52,345.06Z"/><path class="cls-1" d="M323.46,345.06a5.67,5.67,0,0,1-3.12-.83,5.29,5.29,0,0,1-2-2.41,9.5,9.5,0,0,1-.69-3.81V323.84a9.48,9.48,0,0,1,.69-3.82,5.26,5.26,0,0,1,2-2.4,6.3,6.3,0,0,1,6.25,0,5.18,5.18,0,0,1,2,2.41,9.72,9.72,0,0,1,.68,3.83v2.23h-4.17v-2.23a3.59,3.59,0,0,0-.18-1.21,1.64,1.64,0,0,0-.55-.79,1.4,1.4,0,0,0-.89-.29,1.38,1.38,0,0,0-1.18.6,2.81,2.81,0,0,0-.43,1.67V338a2.78,2.78,0,0,0,.43,1.66,1.5,1.5,0,0,0,2.39,0,2.89,2.89,0,0,0,.41-1.67v-2.23h4.17V338a9.75,9.75,0,0,1-.68,3.83,5.23,5.23,0,0,1-2,2.41A5.68,5.68,0,0,1,323.46,345.06Z"/><path class="cls-1" d="M330.55,321.61v-4.54h12.07v4.54Zm4,23.16V319.4h4.11v25.37Z"/><path class="cls-1" d="M348.71,317.07v27.7h-4.12v-27.7Z"/><path class="cls-1" d="M357.84,345.06a6.77,6.77,0,0,1-3.33-.77,5.19,5.19,0,0,1-2.12-2.23,7.89,7.89,0,0,1-.73-3.52V323.3a7.9,7.9,0,0,1,.73-3.53,5.11,5.11,0,0,1,2.12-2.22,7.65,7.65,0,0,1,6.65,0,5.11,5.11,0,0,1,2.12,2.22,7.9,7.9,0,0,1,.73,3.53v15.24a7.89,7.89,0,0,1-.73,3.52,5.19,5.19,0,0,1-2.12,2.23A6.76,6.76,0,0,1,357.84,345.06Zm0-4.73a1.82,1.82,0,0,0,1.48-.63,2.65,2.65,0,0,0,.52-1.77V323.88a2.68,2.68,0,0,0-.52-1.76,2,2,0,0,0-2.95,0,2.68,2.68,0,0,0-.53,1.76v14.05a2.65,2.65,0,0,0,.53,1.77A1.81,1.81,0,0,0,357.84,340.33Z"/><path class="cls-1" d="M367,344.75V317.07h3.23l5.67,18.48-.44.74V317.07h3.75v27.68h-3.27l-5.61-17.41.43-.76v18.17Z"/><path class="cls-1" d="M396.63,334.58a4.35,4.35,0,0,0-2.81.81,2.79,2.79,0,0,0-1,2.3,3.23,3.23,0,0,0,.72,2.24,2.54,2.54,0,0,0,2,.8c1.38,0,2.45-.9,3.21-2.71a20.63,20.63,0,0,0,1.13-7.65h3.94a25.87,25.87,0,0,1-1.07,7.93,10.69,10.69,0,0,1-3.06,5,7.1,7.1,0,0,1-4.83,1.74,5.45,5.45,0,0,1-4.46-1.94,8.25,8.25,0,0,1-1.6-5.43,7.26,7.26,0,0,1,1.69-5.05,6.89,6.89,0,0,1,4.72-2.17ZM400,344.77l-5.68-10.91q-1.46-2.85-2.43-5.25a13.8,13.8,0,0,1-1-5.29,7.09,7.09,0,0,1,1.47-4.77,5.89,5.89,0,0,1,8.25,0,7,7,0,0,1,1.46,4.71v2.36H398v-2.36a2.84,2.84,0,0,0-.39-1.61,1.23,1.23,0,0,0-1.09-.58,1.26,1.26,0,0,0-1.1.59,3,3,0,0,0-.41,1.69,11.16,11.16,0,0,0,.7,3.83,28.73,28.73,0,0,0,1.91,4.1L405,344.77Z"/><path class="cls-1" d="M414.16,344.77V317.06h4v27.71ZM416,333.06v-4.54h4.35a1.64,1.64,0,0,0,1.26-.48,1.91,1.91,0,0,0,.44-1.35v-3.08a2.24,2.24,0,0,0-.44-1.49,1.57,1.57,0,0,0-1.26-.53H416v-4.53h4.1a7,7,0,0,1,3.34.73,4.9,4.9,0,0,1,2.11,2.14,7.31,7.31,0,0,1,.74,3.41v3.24a7.71,7.71,0,0,1-.74,3.51,5,5,0,0,1-2.11,2.2,6.81,6.81,0,0,1-3.34.77Zm6.55,11.71-3.2-12.57,3.77-.88L427,344.77Z"/><path class="cls-1" d="M429.84,344.77v-27.7H434v27.7Zm1.83-23.09v-4.61h8.89v4.61Zm0,11.62v-4.59h8.06v4.59Zm0,11.47v-4.61h8.89v4.61Z"/><path class="cls-1" d="M443,344.77v-27.7h4.12v27.7ZM445,334v-4.54h4.26a1.37,1.37,0,0,0,1.19-.6,2.78,2.78,0,0,0,.43-1.66V324a3.06,3.06,0,0,0-.42-1.74,1.35,1.35,0,0,0-1.2-.62H445v-4.54h4.38a6.08,6.08,0,0,1,3.06.73,4.79,4.79,0,0,1,1.94,2.11,7.67,7.67,0,0,1,.67,3.37V328a7.37,7.37,0,0,1-.67,3.29,4.69,4.69,0,0,1-1.94,2.07,6.13,6.13,0,0,1-3.06.72Z"/><path class="cls-1" d="M455.55,344.77l5.76-27.7h2.89l5.75,27.7h-4.08l-3.12-18.15-3.12,18.15Zm3.92-4.3v-4.42H466v4.42Z"/><path class="cls-1" d="M475.87,317.07v27.7h-4.12v-27.7Z"/><path class="cls-1" d="M478.83,344.77V317.06h4v27.71Zm1.84-11.71v-4.54H485a1.63,1.63,0,0,0,1.26-.48,1.91,1.91,0,0,0,.45-1.35v-3.08a2.25,2.25,0,0,0-.45-1.49,1.56,1.56,0,0,0-1.26-.53h-4.34v-4.53h4.09a7.08,7.08,0,0,1,3.35.73,4.9,4.9,0,0,1,2.11,2.14,7.31,7.31,0,0,1,.73,3.41v3.24a7.71,7.71,0,0,1-.73,3.51,5,5,0,0,1-2.11,2.2,6.85,6.85,0,0,1-3.35.77Zm6.55,11.71L484,332.2l3.76-.88,3.85,13.45Z"/><path class="cls-1" d="M49.09,294.2H7.18c-6.5,0-6.85-.23-6.44-6.81a311.5,311.5,0,0,1,19.82-91.81c15.5-40.65,39.55-75.65,70.2-106.16A297.29,297.29,0,0,1,183,27.32c31.48-13.65,64.08-23.19,98.43-26.07,45-3.77,89,.76,131.64,16.52a318.07,318.07,0,0,1,101.05,60,300.48,300.48,0,0,1,74.8,100c16.17,34.81,25.69,71.25,27.21,109.68.22,5.68-.33,6.3-6.16,6.14A235.54,235.54,0,0,0,581.77,295c1,1.53,2.43,1,3.54,1,8.33.11,16.66.27,25,.09,4.09-.08,6,.91,6.06,5.53.27,12.45.52,11.87-12.16,11.31-14.8-.66-29.66-.37-44.48-.1-4.8.09-6.15-1.39-6.31-6.16-1.33-39.15-12.18-75.65-31-109.9-20.49-37.26-49.95-65.67-86-87.66A230.16,230.16,0,0,0,358,79.09c-29.81-5.54-59.73-6.69-89.8-1.09a305.55,305.55,0,0,0-52.78,14.7c-3.43,1.31-5.16.78-4.69-3.28.85-7.19-2.44-11.7-9.06-14.21a29.37,29.37,0,0,1-7.1-3.57c-5.18-3.82-9.89-3.73-14.84.43a27.45,27.45,0,0,1-7.65,4.66c-5.69,2.2-7.57,6.72-6.71,11.92,1.7,10.25-4,15.07-11.7,20C125.07,127.15,96.82,146.22,68.36,165c-3.26,2.14-4.76,4.68-4.7,8.62q.26,17.25,0,34.49c-.06,4.13,1.43,5.57,5.56,5.5,11.16-.21,22.32-.1,33.49-.07,5.16,0,5.86.88,3.76,5.45a239.54,239.54,0,0,0-16.2,47.61,250.72,250.72,0,0,0-5.36,40c-.39,6.29-.67,6.68-7.1,6.7-23.83.05-47.65,0-71.48.21-4.75.05-6.48-1.3-6.32-6.21.38-12.16-1.44-11,10.9-11.07q17.5,0,35-.12c1.08,0,2.16-.16,3.23-.24Zm299-244.61c-2.77.26-4.53,2.41-4.65,5.76-.1,3,3.75,7,6.27,6.39,3-.72,5.37-2.75,5.68-6C355.64,52.63,352.09,49.52,348.06,49.59ZM481,90.27c-.61-3.17-2.09-5.71-6-5.75-3.57,0-5.8,2-5.82,5.36s1.61,6.17,5.56,6.35S480.32,94.09,481,90.27ZM45.54,251.56c-.11-2.38-1.34-3.76-3.59-4s-3.76.87-3.79,3.35A3.66,3.66,0,0,0,41.59,255C43.94,255.22,45.14,253.71,45.54,251.56Zm181.3-195c-.07-2-1-3.32-2.9-3.41s-2.85,1.19-2.88,3.18.8,3.35,2.72,3.38S226.6,58.28,226.84,56.52ZM580.47,220.85a3,3,0,0,0-3,2.75c-.17,1.59.43,3.05,2.25,3.25s2.73-.9,2.83-2.65C582.66,222.61,582.41,221.2,580.47,220.85Zm-164.16-173a2.36,2.36,0,0,0-2.1,2.8A2.12,2.12,0,0,0,416.33,53a2.29,2.29,0,0,0,2.41-2.54C418.79,48.8,417.86,48,416.31,47.86ZM307.24,28.75c-1.39,0-2.11.62-2.07,2s.45,2.29,1.92,2.24a2.15,2.15,0,0,0,2.25-2.09C309.42,29.55,308.49,29,307.24,28.75Zm254,152.93a1.7,1.7,0,0,0-1.58,2.1c.17,1,.62,2.05,1.82,2,1.46,0,2-1.1,1.82-2.41A1.81,1.81,0,0,0,561.22,181.68Z"/><path class="cls-2" d="M454.89,203.52c-3.66-.05-7.32-.15-11-.16L234,203.27c-6.83,0-7,0-6.72,6.78.68,14.13-5.29,24.84-16.76,32.5-3.57,2.39-4.55,5.09-4.55,9.09q.19,92.7.18,185.41c0,7,0,7-9.93,6.83-5.81-.08-5-4.11-4.87-7.77.11-4.16.29-8.32.28-12.48a17.33,17.33,0,0,0-.75-4.36,5,5,0,0,0-5.39-3.47c-2.58.15-1.33,2.89-1.37,4.46-.15,6.16-.28,12.34,0,18.49.17,3.84-1.31,4.84-4.92,4.83-8.82,0-9.49-.54-9.49-9.49q0-90.7.12-181.41c0-4.71-1.4-7.6-5.43-10.17-12-7.64-17.48-19-16.57-33,.33-5.22-1.24-6.22-5.94-6.18-19.83.2-39.65,0-59.48.2-4.54.05-6.13-1.24-5.94-5.9.32-7.82,0-15.66-.09-23.48,0-2.82.24-5,4-4.63,2.14.24,3.69-1.25,5.34-2.37q39.42-26.73,78.87-53.42a13.25,13.25,0,0,1,2.58-1.48c7.47-2.89,10.15-8.5,9.58-16.2-.39-5.19.42-10.09,5.32-13.15,2.54-1.59,5.37-3.42,8.34-1.42,3.64,2.46,9.17,3.63,8.27,9.89-.85,5.89,2.12,8.09,7.5,9.48,41.55,10.68,83.09,21.41,124.5,32.6,12.56,3.39,25.07,7,37.72,10,13.09,3.05,26,6.59,39.08,9.77,20.71,5.06,41.38,10.28,62.05,15.48a40.59,40.59,0,0,0,12.42.79c3.63-.21,5.08.83,5,4.68-.25,8.32-.21,16.66,0,25,.07,3.29-1.18,4.72-4.36,4.31-5.25-.67-6.5,1.9-6.43,6.71.23,14.83.2,29.66,0,44.48-.06,4.29,1.26,7.13,5,9.47,10.36,6.51,14.75,17.53,12.13,29.29-2.5,11.17-11.3,19.58-22,21-13.14,1.78-23.25-3.12-29.28-14.18-6.76-12.39-2.41-29.19,9.74-36.35,4.1-2.42,5.73-5.31,5.66-10.06-.24-14.66-.06-29.32-.05-44,0-2,.4-4-1.29-5.63C455.87,203.57,455.55,203.29,454.89,203.52Zm9.52,1q-.11,25.92-.2,51.85c0,.49,0,1,0,1.49a2.06,2.06,0,0,0,2.26,2.13,2,2,0,0,0,2.11-1.71,31.83,31.83,0,0,0,.38-4.46q-.08-22.93-.23-45.87c0-1.31.25-2.68-.65-3.85C466.63,202.12,465.39,202.25,464.41,204.54Zm-40-36.49c-1.41-.49-2.16-.79-2.93-1-39.16-11.16-78.64-21.13-118-31.47q-49.67-13-99.32-26.19c-5.3-1.41-5.79-1.2-5.22,4.33,1.7,16.38,3.65,32.74,5.12,49.14.47,5.21,2.65,6.56,7.62,6.55q103.41-.19,206.82-.12C420.2,169.28,422.08,169.86,424.42,168.05ZM166.92,209.9c.1,11,10,20.62,21,20.37s20.43-9.67,20.36-20.47-10-20.32-21.14-20.26A20.49,20.49,0,0,0,166.92,209.9ZM347.4,188.26v.05q-61.18,0-122.37.06c-1.54,0-4.32-1.2-4.45,1.33-.11,2.29,2.48,2.76,4.57,2.84,1.34,0,2.67,0,4,0q27.22,0,54.44,0,93.17,0,186.31-.14c1.75,0,4.6,1,4.61-2.13,0-2.75-2.54-2-4.24-2Q408.83,188.24,347.4,188.26Zm-163.3,150c0,19.3,0,38.61.06,57.91,0,2-1.28,5.23,1.08,5.69,2.69.53,4.45-2.35,5.67-4.79a11.51,11.51,0,0,0,1-5.35q0-52.67.09-105.34a11.32,11.32,0,0,0-3.72-8.89c-.95-.87-2.37-2.25-3.2-2-1.88.51-.91,2.54-.91,3.87C184.07,299,184.09,318.65,184.1,338.29ZM173.53,126.68c-.4,0-.86,0-1,.15q-14.43,19.72-28.79,39.5c-1.8,2.47-.15,2.75,1.84,2.76,7,0,14,.06,21,.13,3.06,0,4.59-1.43,4.83-4.46.87-11.29,1.83-22.57,2.66-33.86C174.16,129.52,174.6,128,173.53,126.68Zm-71.38,40.81.38,1.21c8.54,0,17.09,0,25.63-.06a4,4,0,0,0,2.56-1.31c9.79-11.06,18.14-23.16,26.05-35.57l-.88-1Zm20.38,20.87H93.14c-1.63,0-3.74-.36-3.63,2.12.11,2.32,2.11,2,3.8,2,18.43,0,36.87.05,55.3,0a14.26,14.26,0,0,0,3.91-.49c1.28-.37,2.67-1.19,2.35-2.74s-1.89-.95-2.94-1C142.13,188.35,132.33,188.37,122.53,188.36Zm328.4,103.58c4.76-14.62,14.64-19.47,28.9-16.84a18.2,18.2,0,0,0-25.07-3.82C447.91,276.19,446.13,284.2,450.93,291.94Z"/><path class="cls-2" d="M69.31,408.7c-1.21-4.31,2.27-2.47,3.48-2.26,15.59,2.77,30.51,7.24,42.71,18.06A85.44,85.44,0,0,1,129.55,440c.6.88,2,1.56,1.2,3s-2.07.74-3.17.75q-26.73.07-53.47.11c-2.13,0-5.36-1.34-5.38,2.35s3.33,2.5,5.4,2.5q99.2,0,198.4,0,43.73,0,87.45.29a26.3,26.3,0,0,0,17.9-6.2c12.77-10.62,25.76-21,38.56-31.55a16.2,16.2,0,0,1,10.91-3.9c18.65,0,37.31-.13,56-.22,5.84,0,6.2.55,3.82,5.87-8.46,18.94-16.85,37.91-25.41,56.81-2.24,4.94-5.07,9.61-7.49,14.47a4.16,4.16,0,0,1-4.26,2.65c-2.16-.07-4.33,0-6.5,0l-348.82,0c-7.16,0-14.33.11-21.48-.06a16.67,16.67,0,0,1-14.32-7.68C36.11,446.68,19,411.67,9.14,373.19c.74-2,2-2.11,3.91-1.53,4.54,1.43,9.14,2.67,13.72,4L45,385.31l9.57,8.13c1,1.85,2,3.66,4.4,4l-.12,0c2,4.25,5.8,7.21,8.17,11.2l5.94,10.52A13.77,13.77,0,0,0,69.31,408.7Z"/><path class="cls-2" d="M303.18,443.72c-20,0-40-.12-59.94.09-4.72.05-6.38-1.22-6.21-6.2.44-12.61.21-12.62,12.64-12.62h76.44c7.8,0,8.49-.71,8.5-8.53,0-14.15.08-28.31-.05-42.46,0-3.61.41-5.33,4.87-5,8.17.59,10.27-1.81,10.3-10,0-11.87,0-11.85,11.64-11.84,14.15,0,28.31.13,42.46-.07,4.19-.06,5.43,1.39,5.4,5.5-.1,17.65,0,35.3.25,52.95,0,3.51-1,6-3.84,8-11.18,7.92-21.08,17.43-31.72,26a17.48,17.48,0,0,1-11.79,4.3c-19.65-.18-39.3-.08-58.95-.08Zm76.54-85.48c-4.31,0-8.64.18-12.94-.06-3.64-.19-4.51,1.48-4.48,4.75s.61,5.53,4.55,5.5c8.63-.05,17.26,0,25.89.09,3.53,0,5.06-1.59,5-5.19s-1.65-5.13-5.11-5.11C388.36,358.25,384,358.23,379.72,358.24Zm16.93,32.7c.37-3.08.33-5.78-4.11-5.39-3.05.26-6.23-.2-6.25,4.37,0,4,2.25,7.14,5.47,6.78S397.65,395.09,396.65,390.94Zm-20.12.27c1-4.28-1.43-5.52-5.21-5.6-3.61-.07-5,1.81-5.09,5.2-.1,4,1.86,5.62,5.73,5.69S377.1,394.85,376.53,391.21ZM351.69,396c3,.5,5-.35,4.76-4.08-.24-3.26-.54-6.41-5-6.16-3.4.2-5.55,1.62-5.48,5.46S347.73,396.66,351.69,396Z"/><path class="cls-1" d="M456.56,377.54c7.77-3.31,15.27-5.14,23.09-5,4.45.09,7.31-1.17,9.94-5,6.9-9.91,17.29-13,28.79-13.09q20.25-.16,40.49,0a11.54,11.54,0,0,0,8.93-3.38c10.68-10.38,30.91-10.56,42.94-5.78,2.43,1,2.53,3,2.14,5-1.63,8.49-3.29,17-5.1,25.43-.67,3.11-3.35,3.44-5.94,3.34-44.8-1.58-89.61-.05-134.42-.62C464.08,378.47,460.54,380.22,456.56,377.54Z"/><path class="cls-1" d="M26.77,375.65c-4.58-1.32-9.18-2.56-13.72-4-1.86-.58-3.17-.43-3.91,1.53C5.94,364.4,5.08,355.12,3.29,346c-.68-3.49,1.46-3.93,4.17-3.49a34.35,34.35,0,0,1,18.65,8.83,13.4,13.4,0,0,0,10.76,4.06c2.15-.13,4.32-.08,6.49,0,21.48.46,42.69-.33,63.73-6.14,17.34-4.79,36.86,5.58,44.26,21.22,1.45,3,1.17,3.93-2.41,3.91q-56.41-.22-112.83-.16C33,374.22,29.47,372.57,26.77,375.65Z"/><path class="cls-2" d="M477,486.66a16.6,16.6,0,0,1,6.1-5.18c18.67-10.39,38.5-17.83,59.12-23.32,9.73-2.59,19.33-5.75,29.4-6.8,1.2-.12,2.87-1,3.61.47.66,1.33-.65,2.54-1.46,3.48-6.82,8-11.48,17.57-18,25.84-3,3.76-5.69,6-11,5.89-20.8-.37-41.61-.13-62.42-.14C480.85,486.9,479.26,486.76,477,486.66Z"/><path class="cls-2" d="M274.8,397.31c0-6.49.08-13,0-19.47,0-3,1.06-4.18,4.12-4.12,8.66.17,17.32.2,26,.15,2.79,0,3.93,1.16,3.93,3.85,0,13.16-.05,26.31,0,39.46,0,3.08-1.36,4.05-4.27,4q-12.74-.15-25.47,0c-3.18,0-4.43-1.08-4.31-4.4.22-6.48.06-13,.06-19.48Z"/><path class="cls-1" d="M574.38,384.45c8.65,0,17.31.07,26,0,3.89,0,5.4,1.13,3.39,5a14.85,14.85,0,0,0-1.09,3.82c-.83,4.15-3.63,6.05-7.53,5.74-17-1.38-33.91-.34-50.86-.64-6.06-.1-6.59-.94-4.42-6.7,1.88-5,5.13-7.4,10.59-7.25C558.4,384.61,566.39,384.45,574.38,384.45Z"/><path class="cls-1" d="M557.14,423.2c-8.64,0-17.29-.13-25.93.05-4.23.09-4.89-1.47-3.41-5.1,2.24-5.5,6.08-8.79,12.2-8.45,17.45,1,34.89.39,52.34.44,2.78,0,3.46.76,2.46,3.54-2.65,7.39-5.19,9.37-13.22,9.42s-16.29,0-24.44,0Z"/><path class="cls-1" d="M54.54,393.44,45,385.31c4-1.48,8.19-.59,12.28-.67,10.13-.21,20.26-.21,30.39-.2,5.29,0,10.38,6.54,9.22,11.67-.57,2.5-2.6,2.26-4.37,2.21-11.22-.32-22.49.85-33.67-.94l.12,0C58.51,394.94,57.87,392.7,54.54,393.44Z"/><path class="cls-2" d="M251.77,397.33c0-6.31.06-12.62,0-18.93,0-3,1-4.78,4.3-4.57,3.12.2,6.89-.37,6.93,4.32.12,13.45.22,26.91-.09,40.35-.08,3.43-3.75,2.72-6.14,3-3,.32-4.81-1.07-4.83-4.21,0-6.64,0-13.29,0-19.93Z"/><path class="cls-1" d="M42.51,326.2c12.33,0,24.66,0,37,0,2.22,0,5.17-.61,5.09,3-.07,3.35-2.74,3.17-5.13,3.17q-36.49,0-73,0c-2.52,0-5.5.29-5.32-3.45.17-3.51,3.15-2.76,5.37-2.77,12,0,24,0,36,0Z"/><path class="cls-1" d="M578,325.6c9-.45,20.9,1.58,32.86.22,1.91-.22,3.72.33,4.59,2.26a2.74,2.74,0,0,1-.5,3.24c-1.6,1.55-3.08.22-4.58-.31-11.08-4-21.5-3.53-30.72,4.66-2.41,2.15-5.24,2.54-8.33,2.45-4.49-.12-9,0-13.46,0-2.63,0-5.32.11-5.05-3.65.24-3.32-.77-7.42,4.29-8.23C563.05,325.3,569,325.81,578,325.6Z"/><path class="cls-2" d="M69.31,408.7a13.77,13.77,0,0,1,3.62,10.4L67,408.58Z"/><path class="cls-1" d="M454.89,203.52c.66-.23,1,0,1.06.69C455.39,204.3,455,204.12,454.89,203.52Z"/><path class="cls-3" d="M155.32,569.91c-4.91-2.49-7.34-3.78-12.16-6.48a321.34,321.34,0,0,1-8.45-34.33c-2.32-1.54-3.48-2.33-5.78-3.93l-8.13,11.67a3.09,3.09,0,0,0-.18,2.84q.57,1.77,3.4,3.68l1.78,1.18c-2.28,1.9-3.43,2.85-5.74,4.73-8.3-5.56-12.38-8.51-20.35-14.75,1.06-2.78,1.6-4.17,2.69-6.94l1.7,1.34c1.84,1.44,3.39,2.15,4.63,2.15a3.08,3.08,0,0,0,2.64-1.05l20.21-26.9a3.24,3.24,0,0,0,.41-2.74c-.24-1.12-1.17-2.3-2.78-3.56l-1.5-1.17c2.38-1.77,3.56-2.67,5.9-4.46a260.22,260.22,0,0,0,24.51,17.18c8.38,4.53,16.08,13.85,10.76,23.58a14,14,0,0,1-5.67,6,13.28,13.28,0,0,1-7.92,1.19,29.45,29.45,0,0,1-9.77-3.3c1.78,7.79,2.8,11.7,5.11,19.52a11.92,11.92,0,0,0,2.27,4,14.39,14.39,0,0,0,4.78,3.74c1.09.56,1.63.83,2.73,1.37C158.39,566.68,157.37,567.76,155.32,569.91Zm-9.39-42c3.1,1.94,5.84,2.88,8.16,2.89s4.21-1.29,5.67-3.84a7.7,7.7,0,0,0,1.22-4.72,7.28,7.28,0,0,0-2-4,21.78,21.78,0,0,0-4.66-3.74c-5-3.1-7.42-4.72-12.26-8.1l-9.07,13C138.11,522.9,140.7,524.61,145.93,527.88Z"/><path class="cls-3" d="M191.61,586.64a43,43,0,0,1-14.31-8.22,20.42,20.42,0,0,1-6.63-10.87c-.84-3.94-.17-8.12,1.91-12.52l9.95-21a3.29,3.29,0,0,0-.11-2.75,6.58,6.58,0,0,0-3.34-2.87l-1.61-.8c1.93-2.24,2.89-3.36,4.79-5.61,7.38,3.66,11.13,5.35,18.7,8.45-.44,2.91-.65,4.37-1.05,7.29l-1.66-.67a6.42,6.42,0,0,0-4.33-.59,3.22,3.22,0,0,0-2.13,1.74c-3.69,8.55-5.53,12.82-9.21,21.37a13,13,0,0,0-1,8.61,14.34,14.34,0,0,0,4.36,7,25.79,25.79,0,0,0,17.37,6.35,14.18,14.18,0,0,0,7.83-2.57,13.11,13.11,0,0,0,4.8-7.2c2.7-8.91,4.06-13.37,6.76-22.27a3.25,3.25,0,0,0-.49-2.7,6.5,6.5,0,0,0-3.67-2.34l-1.73-.56c1.59-2.49,2.38-3.74,3.94-6.24,7.72,2.5,11.61,3.61,19.46,5.54,0,2.95,0,4.42,0,7.37l-1.76-.43a6.29,6.29,0,0,0-4.29.07,3.26,3.26,0,0,0-1.84,2l-6,22.5c-1.26,4.7-3.42,8.33-6.6,10.8a20.29,20.29,0,0,1-12,4.05A42.71,42.71,0,0,1,191.61,586.64Z"/><path class="cls-3" d="M277,605a338.79,338.79,0,0,1-38.4-5.78c-.24-3-.35-4.43-.55-7.39l2,.43c2.18.46,3.8.4,4.85-.16a3.15,3.15,0,0,0,1.82-2.09q3.15-16.56,6.32-33.12a3.27,3.27,0,0,0-.75-2.61c-.67-.88-2-1.5-3.86-1.9l-1.76-.38c1.31-2.63,1.95-3.94,3.23-6.58a260,260,0,0,0,28.71,4.5,37.11,37.11,0,0,1,10,2.32,16,16,0,0,1,7,5,13,13,0,0,1,2.42,8.61,11.91,11.91,0,0,1-6.84,10.76c6.7,2.62,10.08,7.25,9.93,14.24a12.64,12.64,0,0,1-2.13,7.2,14.21,14.21,0,0,1-5.51,4.58,24.65,24.65,0,0,1-7.73,2.2A40.18,40.18,0,0,1,277,605Zm-.79-32.13c3.75.4,6.59,0,8.49-1s2.93-3.06,3.13-6a7.71,7.71,0,0,0-1-4.76,7.35,7.35,0,0,0-3.45-2.8,19.73,19.73,0,0,0-5.52-1.3c-5.77-.6-8.66-1-14.4-1.87-1,6.31-1.48,9.47-2.46,15.78C267.08,571.82,270.12,572.22,276.21,572.85Zm1.45,25a18.32,18.32,0,0,0,6-.37,8.66,8.66,0,0,0,4.42-2.51,7.93,7.93,0,0,0,1.86-5,7.58,7.58,0,0,0-1.44-5.28,10.23,10.23,0,0,0-4.1-3.09,17.19,17.19,0,0,0-5.16-1.31c-7.77-.71-11.65-1.19-19.37-2.39-1.08,7-1.63,10.47-2.72,17.46C265.36,596.64,269.46,597.14,277.66,597.9Z"/><path class="cls-3" d="M365,601.64a429.74,429.74,0,0,1-56.09,4.78c-.84-2.84-1.25-4.27-2.06-7.11h2.05q3.31,0,4.71-1.17a3.1,3.1,0,0,0,1.36-2.46l-.69-33.63a3.27,3.27,0,0,0-1.29-2.41,6.3,6.3,0,0,0-4.17-1.09H307c.73-2.84,1.09-4.26,1.79-7.11a382.81,382.81,0,0,0,46.11-3.86l2.55,15.3c-3.53,1.24-5.31,1.84-8.9,3-.28-2.05-.42-3.08-.69-5.13a4.83,4.83,0,0,0-1.74-3.54,4,4,0,0,0-2.82-.75c-7.69.93-11.55,1.27-19.28,1.69.37,6.71.55,10.07.92,16.79,3.32-.18,5-.29,8.31-.56A4.29,4.29,0,0,0,336,573a4.72,4.72,0,0,0,.95-3.86c3.2-1,4.79-1.46,8-2.5,1,8,1.46,12,2.44,19.92-3.54-.22-5.3-.36-8.81-.67a4.28,4.28,0,0,0-4.7-4.44c-3.4.28-5.1.39-8.51.58.37,6.71.55,10.07.92,16.79,9.22-.5,13.82-.91,23-2.05a4.69,4.69,0,0,0,2.88-1.5,4.52,4.52,0,0,0,.86-3.91l-.7-5.09c4,.08,6.05.1,10.11.05Z"/><path class="cls-3" d="M440.63,579.45c-4,1.69-6,2.5-10,4.06a376.92,376.92,0,0,1-48.22-27.17q3.73,14.53,7.48,29.06a3.1,3.1,0,0,0,2,2c1.1.49,2.72.45,4.84-.14l2-.55c0,3,0,4.44-.08,7.41-9,2.49-13.51,3.57-22.61,5.43-1.39-2.62-2.08-3.94-3.44-6.57l2-.4c2.17-.45,3.64-1.15,4.4-2.08a3.09,3.09,0,0,0,.85-2.69q-3.66-16.41-7.35-32.82a3.24,3.24,0,0,0-1.75-2.11,6.35,6.35,0,0,0-4.32-.23l-1.77.35c.16-2.93.23-4.4.35-7.32,5.57-1.14,8.34-1.78,13.86-3.2a364.14,364.14,0,0,0,46.61,27.69l-10.86-28a3.23,3.23,0,0,0-2.06-1.81c-1.05-.4-2.49-.25-4.34.42l-1.67.61c-.29-2.92-.45-4.38-.78-7.29,7.39-2.7,11.05-4.19,18.27-7.42,1.82,2.3,2.73,3.45,4.58,5.74l-1.67.75a6.49,6.49,0,0,0-3.43,2.73,3.28,3.28,0,0,0-.21,2.74Z"/><path class="cls-3" d="M441.53,527.11c-1.78.92-2.68,1.37-4.47,2.26-.16-2.49-.24-3.74-.43-6.22a5.67,5.67,0,0,1-3.46,0,3.83,3.83,0,0,1-2.31-2,4,4,0,0,1,0-3.5,5.66,5.66,0,0,1,2.75-2.84,5.57,5.57,0,0,1,3.89-.54,4,4,0,0,1,2.83,2,13.28,13.28,0,0,1,1.38,5.4A21.77,21.77,0,0,1,441.53,527.11Z"/><path class="cls-3" d="M499,547.84a36.72,36.72,0,0,1-6.52,3.6,39.78,39.78,0,0,1-5.91,2,34.09,34.09,0,0,1-4.74.85l1.69,3.18c-3.57,2.16-5.36,3.22-9,5.26l-5.15-9.22c3.08-2.81,4.6-4.23,7.58-7.13.12.2.68.36,1.68.47a18.64,18.64,0,0,0,3.84-.06,24.76,24.76,0,0,0,5.15-1.12,21.56,21.56,0,0,0,5.5-2.7,28.71,28.71,0,0,0,6.13-5.29,11.82,11.82,0,0,0,2.52-4.55,4,4,0,0,0-.44-3.28,5.49,5.49,0,0,0-3.85-2.31,17.06,17.06,0,0,0-5.42.28q-3,.58-6.42,1.49c-3.81,1-5.71,1.46-9.49,2.31a33.16,33.16,0,0,1-12.07.92,12,12,0,0,1-9.27-6.12,11,11,0,0,1-1.36-7.84,17.72,17.72,0,0,1,3.7-7.59,30.8,30.8,0,0,1,7.16-6.44,33.22,33.22,0,0,1,5.23-2.88,39.86,39.86,0,0,1,4.72-1.71c1.47-.42,2.77-.75,3.92-1l-2-2.68c2.92-2.15,4.37-3.25,7.24-5.51,3.05,3.94,4.58,5.91,7.62,9.85-2.62,2.89-3.95,4.31-6.67,7.11a13.3,13.3,0,0,0-7.43-.81,19.68,19.68,0,0,0-8.08,2.7,18.24,18.24,0,0,0-4.57,4.25,8.16,8.16,0,0,0-1.76,3.88,5,5,0,0,0,.63,3.22,5.14,5.14,0,0,0,2.89,2.38,10.08,10.08,0,0,0,4.29.18,58.16,58.16,0,0,0,6-1.2c3.72-.88,5.59-1.36,9.32-2.39a93.27,93.27,0,0,1,9.7-2.29,20.46,20.46,0,0,1,8.2.07,11.63,11.63,0,0,1,6.76,4.66c2.49,3.56,2.7,8.13.74,12.48S505.1,543.66,499,547.84Z"/></svg>